<?xml version="1.0" encoding="UTF-8"?>
<svg version="1.1" xmlns="http://www.w3.org/2000/svg" width="474" height="496">
<path d="M0 0 C156.42 0 312.84 0 474 0 C474 163.68 474 327.36 474 496 C317.58 496 161.16 496 0 496 C0 332.32 0 168.64 0 0 Z " fill="#1D1D1D" transform="translate(0,0)"/>
<path d="M0 0 C156.42 0 312.84 0 474 0 C474 163.68 474 327.36 474 496 C317.58 496 161.16 496 0 496 C0 332.32 0 168.64 0 0 Z M166 34 C164.792229 34.43070801 164.792229 34.43070801 163.56005859 34.87011719 C145.71929233 41.35320844 128.38190501 49.81724278 113 61 C112.04480469 61.68320312 111.08960937 62.36640625 110.10546875 63.0703125 C65.38201603 95.77763441 33.67038063 142.57732047 22 197 C21.55646894 200.00482303 21.26098948 202.97252206 21 206 C20.505 206.99 20.505 206.99 20 208 C15.83051758 237.91679723 17.45182422 267.77951271 25 297 C25.17756836 297.69222656 25.35513672 298.38445312 25.53808594 299.09765625 C33.29502354 328.68740041 47.31775113 356.5635444 67 380 C67.81984375 381.00417969 68.6396875 382.00835937 69.484375 383.04296875 C79.22418825 394.88661026 89.8173426 405.65013794 102 415 C102.52722656 415.41427246 103.05445312 415.82854492 103.59765625 416.25537109 C130.60928362 437.41500146 162.44588375 451.32427913 196 458 C197.21453857 458.2477417 197.21453857 458.2477417 198.45361328 458.50048828 C223.59093236 463.39434525 251.93206267 463.05349769 277 458 C278.61433733 457.70567874 280.22892564 457.41273103 281.84375 457.12109375 C333.35590035 447.43637491 382.23977844 416.42906949 413 374 C413.45858398 373.36980957 413.91716797 372.73961914 414.38964844 372.09033203 C447.77997807 325.80704904 463.45013603 268.84636964 455 212 C454.86722656 210.78054687 454.73445313 209.56109375 454.59765625 208.3046875 C449.49679435 162.54266928 425.39526217 120.74977348 394 88 C393.10539062 87.05253906 392.21078125 86.10507813 391.2890625 85.12890625 C384.39534606 78.00270377 376.93100769 71.90991124 369 66 C368.19095215 65.38576172 367.3819043 64.77152344 366.54833984 64.13867188 C359.85571264 59.14118895 352.93655404 54.90178409 345.625 50.875 C344.59117187 50.29363281 343.55734375 49.71226563 342.4921875 49.11328125 C332.49794205 43.55677911 322.28746115 38.42933151 311.375 34.9375 C310.62484619 34.69346436 309.87469238 34.44942871 309.10180664 34.19799805 C294.99596883 29.69097162 280.68368566 26.02836644 266 24 C264.98075439 23.85860596 264.98075439 23.85860596 263.94091797 23.71435547 C231.26470185 19.83321835 196.97246348 22.87038438 166 34 Z " fill="#F7F7F7" transform="translate(0,0)"/>
<path d="M0 0 C4.69767013 4.41267336 5.68051837 10.52442711 6.2578125 16.8046875 C6.34865171 21.17794666 6.20512013 24.14323611 4 28 C4.99 27.67 5.98 27.34 7 27 C9.00331873 51.84115221 9.00331873 51.84115221 3.52270508 59.32910156 C1.59636279 61.53339626 -0.40172924 63.60967261 -2.54248047 65.60644531 C-4.72645869 67.69457726 -6.57568112 70.04905376 -8.5 72.375 C-13.08277623 77.39858774 -18.36673881 81.23045326 -24 85 C-16.48993971 81.86955403 -9.69367049 78.12003604 -2.84765625 73.76953125 C-0.5981726 72.37170396 1.60703875 71.12440348 4 70 C0.30890401 86.51279787 -5.33217845 101.94048343 -13 117 C-13.41894531 117.86753906 -13.83789062 118.73507813 -14.26953125 119.62890625 C-18.20882524 126.96462333 -24.82120628 130.10621275 -32.55859375 132.4453125 C-40.35792852 134.63337847 -47.92613025 136.24988023 -56 137 C-52.72069816 140.63065561 -50.6613136 141.86255988 -45.80175781 142.11352539 C-44.63918457 142.10567017 -44.63918457 142.10567017 -43.453125 142.09765625 C-42.60878906 142.09443359 -41.76445312 142.09121094 -40.89453125 142.08789062 C-39.58548828 142.07532227 -39.58548828 142.07532227 -38.25 142.0625 C-37.36183594 142.05798828 -36.47367187 142.05347656 -35.55859375 142.04882812 C-33.37232671 142.037074 -31.18619821 142.02064249 -29 142 C-36.0758631 153.7627692 -44.67376246 163.96212184 -54 174 C-54.49757813 174.5671875 -54.99515625 175.134375 -55.5078125 175.71875 C-58.40179288 178.20363368 -61.87252694 178.12248293 -65.546875 178.09765625 C-66.39121094 178.09443359 -67.23554688 178.09121094 -68.10546875 178.08789062 C-68.97816406 178.07951172 -69.85085937 178.07113281 -70.75 178.0625 C-71.63816406 178.05798828 -72.52632813 178.05347656 -73.44140625 178.04882812 C-75.62763316 178.03707422 -77.81382528 178.01913966 -80 178 C-76.04 179.98 -72.08 181.96 -68 184 C-75.4350346 191.4350346 -83.91651585 193.96895455 -94.3125 194.3125 C-100.45306292 194.21682551 -106.13421556 192.71981115 -112 191 C-112.2784375 191.74894531 -112.556875 192.49789062 -112.84375 193.26953125 C-113.88142191 195.71997945 -114.95442399 197.54436117 -116.5 199.6875 C-120.21524148 205.08235925 -123.25956784 210.82676028 -126.30859375 216.6159668 C-129.96148853 223.39025435 -134.0268688 227.64497753 -140.6875 231.625 C-144.06326284 233.64406248 -145.79441576 234.69162364 -148 238 C-147.39800781 238.25136719 -146.79601562 238.50273437 -146.17578125 238.76171875 C-143.69967726 240.17091976 -142.75123452 241.45563211 -141.1875 243.8125 C-137.00894187 249.52854726 -137.00894187 249.52854726 -131 253 C-122.69360518 254.0269394 -116.85291783 254.06169995 -110 249 C-109.34 249 -108.68 249 -108 249 C-107.67 248.01 -107.34 247.02 -107 246 C-101.07065707 240.40147878 -94.61742647 236.0157518 -86.3125 235.5 C-75.09723894 235.87612156 -66.79682584 241.97475388 -59.375 249.75 C-55.66840218 253.26151373 -52.62946717 254.10892845 -47.625 254.3125 C-38.88826944 254.02463408 -34.53615829 249.92088368 -28.36328125 244.16015625 C-20.85922689 237.30107847 -13.99552243 236.37539835 -4.06640625 236.5859375 C4.05204262 237.10849568 9.69075769 242.23567978 15 248 C20.31511043 252.65072162 24.6281671 254.52934375 31.68359375 254.296875 C38.44147614 253.43077203 42.60607628 249.55591834 47.4375 245 C52.98516194 239.79042272 57.85349697 236.29098267 65.5625 235.75 C66.366875 235.8325 67.17125 235.915 68 236 C68 238.31 68 240.62 68 243 C67.42894531 243.08894531 66.85789062 243.17789063 66.26953125 243.26953125 C60.00267864 244.65441601 56.07301846 247.26011709 51.375 251.4375 C42.80432399 258.99043904 37.96741213 261.70259827 26.26953125 261.31640625 C16.20131605 260.34206284 8.93183772 253.00633365 1.76171875 246.41796875 C-2.66956589 242.85132502 -8.62706815 243.49744241 -14 244 C-19.37358081 245.42270118 -22.66381504 248.5438225 -26.4375 252.5 C-32.90811137 259.16835501 -38.13197418 261.1854425 -47.4375 261.625 C-58.69269146 261.27678549 -64.92550895 255.46873084 -72.7734375 247.953125 C-76.63472131 244.56603394 -79.30851885 243.72154518 -84.4375 243.75 C-85.36433594 243.74484375 -86.29117188 243.7396875 -87.24609375 243.734375 C-92.77299165 244.26746586 -95.69148945 246.39863925 -99.5625 250.25 C-106.76162148 256.84209497 -113.85481936 261.2884354 -123.8125 261.5625 C-133.04444097 261.05694133 -138.6152268 257.3847732 -145 251 C-145.91308496 249.88895625 -146.81107106 248.76518186 -147.6875 247.625 C-149.76461825 244.85626831 -149.76461825 244.85626831 -152.625 244 C-155.27157197 243.78043117 -155.27157197 243.78043117 -158 246 C-156.65535812 243.18158981 -155.14944264 240.62424088 -153.3828125 238.05078125 C-152.60526611 236.91539917 -152.60526611 236.91539917 -151.81201172 235.75708008 C-151.25529785 234.95036865 -150.69858398 234.14365723 -150.125 233.3125 C-149.25705811 232.04925903 -149.25705811 232.04925903 -148.37158203 230.76049805 C-144.09054788 224.54408213 -139.75249204 218.36929206 -135.38574219 212.21289062 C-132.00510207 207.44205989 -128.67628286 202.63852791 -125.375 197.8125 C-121.52687845 192.18874522 -117.61032471 186.62062778 -113.63500977 181.08618164 C-110.05545748 176.09678377 -106.55733892 171.05436582 -103.0703125 166 C-96.64818289 156.69397067 -90.10403342 147.47288171 -83.58056641 138.23779297 C-81.05291011 134.65909392 -78.52648191 131.07952819 -76 127.5 C-72.94206305 123.1675045 -69.88378652 118.83525028 -66.82421875 114.50390625 C-65.77861006 113.02346277 -64.73303667 111.54299435 -63.6875 110.0625 C-63.18105957 109.34537842 -62.67461914 108.62825684 -62.15283203 107.8894043 C-59.55103196 104.20344919 -56.95662646 100.51262972 -54.375 96.8125 C-52.02825294 93.45016803 -49.65009738 90.11188614 -47.25976562 86.78051758 C-43.05924076 80.92568704 -38.93138709 75.04091187 -35 69 C-51.28155599 90.13294513 -67.45541587 111.3163401 -83 133 C-83.44585449 133.62116699 -83.89170898 134.24233398 -84.35107422 134.88232422 C-91.84592343 145.32785608 -99.24994783 155.83754035 -106.65380859 166.34765625 C-107.75807015 167.91512018 -108.86255843 169.48242443 -109.96728516 171.04956055 C-111.00525456 172.52200291 -112.04271654 173.99480315 -113.07958984 175.46801758 C-115.34362787 178.67935023 -117.61516758 181.87643161 -120 185 C-125.51546909 182.56985811 -128.5615313 178.18250423 -131.8125 173.25 C-133.51789163 168.58261239 -133.74527697 163.9363566 -134 159 C-131.36 159.33 -128.72 159.66 -126 160 C-126.5053125 159.59910156 -127.010625 159.19820312 -127.53125 158.78515625 C-133.51021711 153.55356003 -133.51021711 153.55356003 -133.8125 149.0625 C-132.47326208 134.33088287 -123.20576122 120.46485124 -116 108 C-115.34 108 -114.68 108 -114 108 C-113.87882812 108.95261719 -113.75765625 109.90523438 -113.6328125 110.88671875 C-113.38144531 112.76810547 -113.38144531 112.76810547 -113.125 114.6875 C-112.88136719 116.54955078 -112.88136719 116.54955078 -112.6328125 118.44921875 C-112.07521631 121.57795295 -111.30991877 124.12148102 -110 127 C-109.90203125 126.28457031 -109.8040625 125.56914062 -109.703125 124.83203125 C-107.77098426 111.95664508 -103.69777072 100.66551062 -98 89 C-97.51402344 87.93136719 -97.02804688 86.86273438 -96.52734375 85.76171875 C-93.91809787 80.17445357 -91.39841292 75.81371592 -86.8125 71.66796875 C-83.59582595 68.70779672 -80.83669766 65.31953982 -78 62 C-76.91463672 65.25608985 -77.1444157 65.865674 -78 69 C-78.07766084 70.44098431 -78.10796367 71.88508629 -78.09765625 73.328125 C-78.09443359 74.12734375 -78.09121094 74.9265625 -78.08789062 75.75 C-78.07951172 76.575 -78.07113281 77.4 -78.0625 78.25 C-78.05798828 79.09046875 -78.05347656 79.9309375 -78.04882812 80.796875 C-78.03707961 82.86461401 -78.01914522 84.93231624 -78 87 C-77.34 87 -76.68 87 -76 87 C-76.04382813 85.83726562 -76.08765625 84.67453125 -76.1328125 83.4765625 C-76.12716969 79.19742874 -75.23393111 75.41524381 -73.875 71.375 C-73.6483667 70.69058838 -73.4217334 70.00617676 -73.18823242 69.30102539 C-72.47625008 67.19422811 -71.73928218 65.09734898 -71 63 C-70.78069824 62.34531738 -70.56139648 61.69063477 -70.33544922 61.01611328 C-67.13103166 51.58528437 -63.71347889 46.73911286 -55 42 C-53.76841313 41.2736192 -52.53938226 40.54289288 -51.3125 39.80859375 C-41.49529969 34 -41.49529969 34 -39 34 C-38.01 36.97 -37.02 39.94 -36 43 C-35.46890625 42.05898437 -34.9378125 41.11796875 -34.390625 40.1484375 C-33.67720096 38.89055828 -32.96365265 37.63274953 -32.25 36.375 C-31.90195313 35.75753906 -31.55390625 35.14007813 -31.1953125 34.50390625 C-30.14671162 32.65914544 -29.07709135 30.82824723 -28 29 C-27.41734375 28.00226563 -26.8346875 27.00453125 -26.234375 25.9765625 C-23.82649912 22.76886771 -21.22896349 20.45082314 -18.17578125 17.87841797 C-14.42323336 14.63872952 -10.98264115 11.08706183 -7.5 7.5625 C-6.77296875 6.83095703 -6.0459375 6.09941406 -5.296875 5.34570312 C-3.52890501 3.56610176 -1.76333622 1.78419082 0 0 Z " fill="#FAFAFA" transform="translate(286,106)"/>
<path d="M0 0 C0.33 0.66 0.66 1.32 1 2 C1.62261719 2.29261719 2.24523437 2.58523438 2.88671875 2.88671875 C5.37938813 4.19986251 6.26591994 5.4814874 7.8125 7.8125 C11.99105813 13.52854726 11.99105813 13.52854726 18 17 C26.30639482 18.0269394 32.14708217 18.06169995 39 13 C39.66 13 40.32 13 41 13 C41.33 12.01 41.66 11.02 42 10 C47.92934293 4.40147878 54.38257353 0.0157518 62.6875 -0.5 C73.90276106 -0.12387844 82.20317416 5.97475388 89.625 13.75 C93.33159782 17.26151373 96.37053283 18.10892845 101.375 18.3125 C110.11173056 18.02463408 114.46384171 13.92088368 120.63671875 8.16015625 C128.14077311 1.30107847 135.00447757 0.37539835 144.93359375 0.5859375 C153.05204262 1.10849568 158.69075769 6.23567978 164 12 C169.31511043 16.65072162 173.6281671 18.52934375 180.68359375 18.296875 C187.44147614 17.43077203 191.60607628 13.55591834 196.4375 9 C201.98516194 3.79042272 206.85349697 0.29098267 214.5625 -0.25 C215.7690625 -0.12625 215.7690625 -0.12625 217 0 C217 2.31 217 4.62 217 7 C216.42894531 7.08894531 215.85789062 7.17789062 215.26953125 7.26953125 C209.00267864 8.65441601 205.07301846 11.26011709 200.375 15.4375 C191.80432399 22.99043904 186.96741213 25.70259827 175.26953125 25.31640625 C165.20131605 24.34206284 157.93183772 17.00633365 150.76171875 10.41796875 C146.33043411 6.85132502 140.37293185 7.49744241 135 8 C129.62641919 9.42270118 126.33618496 12.5438225 122.5625 16.5 C116.09188863 23.16835501 110.86802582 25.1854425 101.5625 25.625 C90.30730854 25.27678549 84.07449105 19.46873084 76.2265625 11.953125 C72.36527869 8.56603394 69.69148115 7.72154518 64.5625 7.75 C63.63566406 7.74484375 62.70882812 7.7396875 61.75390625 7.734375 C56.22700835 8.26746586 53.30851055 10.39863925 49.4375 14.25 C42.23837852 20.84209497 35.14518064 25.2884354 25.1875 25.5625 C15.93616888 25.05587949 10.41103921 21.37046302 4 15 C3.06427973 13.93308085 2.14519389 12.8511434 1.25 11.75 C-0.7091178 9.35552269 -2.44551505 7.70298996 -5 6 C-3.35 4.02 -1.7 2.04 0 0 Z " fill="#C8C7C8" transform="translate(137,342)"/>
<path d="M0 0 C0 3.47379456 -0.58267709 4.16012899 -2.59765625 6.87890625 C-3.15259766 7.63623047 -3.70753906 8.39355469 -4.27929688 9.17382812 C-5.16198242 10.3562207 -5.16198242 10.3562207 -6.0625 11.5625 C-7.20002013 13.10487804 -8.3367344 14.64785073 -9.47265625 16.19140625 C-10.05249268 16.97733154 -10.6323291 17.76325684 -11.22973633 18.57299805 C-14.21807736 22.66996374 -17.10567056 26.83636395 -20 31 C-21.10756576 32.58498993 -22.21563368 34.16962908 -23.32421875 35.75390625 C-23.87174805 36.53685059 -24.41927734 37.31979492 -24.98339844 38.12646484 C-33.6658285 50.53811057 -42.36587526 62.93676796 -51.1875 75.25 C-54.99068714 80.56072993 -58.72642435 85.91458881 -62.43359375 91.29296875 C-66.29979944 96.89148656 -70.21715888 102.45454127 -74.12792969 108.02197266 C-77.13875531 112.31455945 -80.11623209 116.62094502 -83 121 C-83.99 120.01 -84.98 119.02 -86 118 C-80.32385214 108.62919589 -73.89582945 99.85021396 -67.45068359 91.00146484 C-65.16432066 87.84703816 -62.93938149 84.65123794 -60.71484375 81.453125 C-57.32943623 76.61021857 -53.88451799 71.80956203 -50.44042969 67.00830078 C-49.44035731 65.61396259 -48.44106347 64.2190658 -47.44238281 62.82373047 C-41.26366742 54.19547619 -35.02711721 45.63873312 -28.515625 37.2578125 C-25.69520554 33.62166158 -22.94155108 29.93652859 -20.1875 26.25 C-15.76066461 20.32992275 -11.30087621 14.4360702 -6.8125 8.5625 C-6.24748779 7.82225586 -5.68247559 7.08201172 -5.1003418 6.31933594 C-4.31784058 5.29694824 -4.31784058 5.29694824 -3.51953125 4.25390625 C-2.82500854 3.34620483 -2.82500854 3.34620483 -2.11645508 2.42016602 C-1 1 -1 1 0 0 Z " fill="#272727" transform="translate(251,174)"/>
<path d="M0 0 C0 0.33 0 0.66 0 1 C-0.61488281 1.03738281 -1.22976562 1.07476562 -1.86328125 1.11328125 C-3.07564453 1.21189453 -3.07564453 1.21189453 -4.3125 1.3125 C-5.11300781 1.37050781 -5.91351563 1.42851562 -6.73828125 1.48828125 C-9.39066259 2.08838825 -10.36503879 2.85708967 -12 5 C-12 5.66 -12 6.32 -12 7 C-11.01 7.33 -10.02 7.66 -9 8 C-9.72832031 8.24105469 -10.45664063 8.48210937 -11.20703125 8.73046875 C-14.37262879 10.16937672 -16.21468455 11.88055753 -18.6875 14.3125 C-23.38683538 18.69383524 -28.10717317 21.50495204 -34 24 C-36 22 -36 22 -37 20 C-39.35599235 19.53248212 -39.35599235 19.53248212 -42.0625 19.375 C-42.98160156 19.30023438 -43.90070313 19.22546875 -44.84765625 19.1484375 C-45.55792969 19.09945313 -46.26820313 19.05046875 -47 19 C-47 18.67 -47 18.34 -47 18 C-46.20335937 17.97421875 -45.40671875 17.9484375 -44.5859375 17.921875 C-38.09250069 17.57429444 -34.05890561 17.12700194 -29 13 C-28.34 13 -27.68 13 -27 13 C-26.67 12.01 -26.34 11.02 -26 10 C-18.07931841 2.52124485 -10.83073065 -0.58838979 0 0 Z " fill="#C4C4C4" transform="translate(205,342)"/>
<path d="M0 0 C0 2.31 0 4.62 0 7 C-0.61746094 7.12375 -1.23492187 7.2475 -1.87109375 7.375 C-9.28458853 9.1804173 -13.69786187 12.60821219 -19 18 C-19.99 17.67 -20.98 17.34 -22 17 C-21 15 -21 15 -20 14 C-21.32 13.34 -22.64 12.68 -24 12 C-9.29920814 -0.68042986 -9.29920814 -0.68042986 0 0 Z " fill="#C6C5C5" transform="translate(354,342)"/>
<path d="M0 0 C0.66 0 1.32 0 2 0 C1.44552878 4.0085034 0.27817938 6.42768976 -2.11328125 9.671875 C-2.74443848 10.54134766 -3.3755957 11.41082031 -4.02587891 12.30664062 C-4.67733887 13.19544922 -5.32879883 14.08425781 -6 15 C-7.20601426 16.71059433 -8.40790404 18.42410465 -9.60546875 20.140625 C-11.40769135 22.71129802 -13.20993066 25.2819547 -15.01367188 27.8515625 C-18.06184303 32.20131277 -21.07882275 36.56386979 -24 41 C-24.99 40.01 -25.98 39.02 -27 38 C-20.90051323 27.93030184 -13.98060385 18.46958025 -7 9 C-6.23300781 7.9584375 -5.46601563 6.916875 -4.67578125 5.84375 C-1.28893496 1.35635617 -1.28893496 1.35635617 0 0 Z " fill="#282828" transform="translate(192,254)"/>
<path d="M0 0 C0.99 0.33 1.98 0.66 3 1 C2.34 2.32 1.68 3.64 1 5 C1.66 5.33 2.32 5.66 3 6 C3 6.66 3 7.32 3 8 C-3.48451673 12.63036589 -11.28684264 17.7584188 -19 20 C-19.66 19.67 -20.32 19.34 -21 19 C-20.443125 18.57589844 -19.88625 18.15179688 -19.3125 17.71484375 C-8.77928951 9.7611873 -8.77928951 9.7611873 0 0 Z " fill="#252525" transform="translate(282,172)"/>
<path d="M0 0 C0 3.47379456 -0.58267709 4.16012899 -2.59765625 6.87890625 C-3.14856934 7.63042969 -3.69948242 8.38195312 -4.26708984 9.15625 C-4.8595752 9.9503125 -5.45206055 10.744375 -6.0625 11.5625 C-7.26481026 13.19886079 -8.46663739 14.83557667 -9.66796875 16.47265625 C-10.24724121 17.25785645 -10.82651367 18.04305664 -11.42333984 18.85205078 C-14.35724421 22.84902982 -17.17396068 26.92655678 -20 31 C-21.31180256 32.87548802 -22.62429922 34.75049074 -23.9375 36.625 C-24.81728516 37.88183594 -24.81728516 37.88183594 -25.71484375 39.1640625 C-26.35099609 40.07285156 -26.35099609 40.07285156 -27 41 C-27.99 40.34 -28.98 39.68 -30 39 C-29.410979 38.24493164 -29.410979 38.24493164 -28.81005859 37.47460938 C-26.99761186 35.15033152 -25.18630086 32.82517093 -23.375 30.5 C-22.75753906 29.70851562 -22.14007813 28.91703125 -21.50390625 28.1015625 C-18.09835459 23.72811721 -14.73135918 19.33048876 -11.41552734 14.88867188 C-9.17919574 11.9048393 -6.90281474 8.95221307 -4.625 6 C-4.17511719 5.41605469 -3.72523438 4.83210937 -3.26171875 4.23046875 C-2.17493451 2.81996154 -1.08753579 1.40992782 0 0 Z " fill="#414141" transform="translate(251,174)"/>
<path d="M0 0 C1.05445313 0.00386719 2.10890625 0.00773437 3.1953125 0.01171875 C5.875 0.3125 5.875 0.3125 7.875 2.3125 C5.53011755 5.26101556 4.45166013 6.24285506 0.640625 6.703125 C-0.51953125 6.65671875 -1.6796875 6.6103125 -2.875 6.5625 C-4.04546875 6.52640625 -5.2159375 6.4903125 -6.421875 6.453125 C-7.31390625 6.40671875 -8.2059375 6.3603125 -9.125 6.3125 C-9.455 5.3225 -9.785 4.3325 -10.125 3.3125 C-6.78262987 0.2526974 -4.47535909 -0.07147379 0 0 Z " fill="#CDCCCD" transform="translate(202.125,342.6875)"/>
<path d="M0 0 C0.763125 0.20625 1.52625 0.4125 2.3125 0.625 C-1.09465548 4.56452353 -3.77054507 6.25751751 -8.69921875 7.86328125 C-11.01093826 8.65869479 -11.01093826 8.65869479 -13.9375 10.875 C-16.6875 12.625 -16.6875 12.625 -18.859375 12.234375 C-19.46265625 12.03328125 -20.0659375 11.8321875 -20.6875 11.625 C-2.6875 -0.375 -2.6875 -0.375 0 0 Z " fill="#272727" transform="translate(127.6875,53.375)"/>
<path d="M0 0 C0.99 0.33 1.98 0.66 3 1 C3.33 1.99 3.66 2.98 4 4 C-0.75 8 -0.75 8 -3 8 C-3.25523437 8.59296875 -3.51046875 9.1859375 -3.7734375 9.796875 C-5.11816498 12.21224538 -6.49214367 13.51211706 -8.625 15.25 C-9.25664062 15.77078125 -9.88828125 16.2915625 -10.5390625 16.828125 C-11.02117187 17.21484375 -11.50328125 17.6015625 -12 18 C-10.25708839 14.1427366 -7.85746406 10.76467622 -5.4375 7.3125 C-4.8197168 6.42208008 -4.8197168 6.42208008 -4.18945312 5.51367188 C-1.14773261 1.14773261 -1.14773261 1.14773261 0 0 Z " fill="#EBEBEB" transform="translate(140,334)"/>
<path d="M0 0 C0.66 0.66 1.32 1.32 2 2 C2.66 1.67 3.32 1.34 4 1 C5.08318662 5.08278034 4.83473185 8.17878835 4.0625 12.3125 C3.77052734 13.91544922 3.77052734 13.91544922 3.47265625 15.55078125 C3.31667969 16.35902344 3.16070312 17.16726562 3 18 C2.34 18 1.68 18 1 18 C-0.2062252 14.38132441 -0.10816918 11.07493749 -0.0625 7.3125 C-0.05798828 6.61060547 -0.05347656 5.90871094 -0.04882812 5.18554688 C-0.03706927 3.45699462 -0.01913454 1.72848635 0 0 Z " fill="#252525" transform="translate(207,175)"/>
<path d="M0 0 C1.31090423 2.62180847 0.70112325 4.18867189 -0.12109375 6.9140625 C-1.82386971 10.95531744 -4.44533414 14.45720866 -7 18 C-7.99 17.01 -8.98 16.02 -10 15 C-8.89789095 13.24870343 -7.79322568 11.49901536 -6.6875 9.75 C-6.07261719 8.77546875 -5.45773438 7.8009375 -4.82421875 6.796875 C-3.29524241 4.45266287 -1.71179023 2.21215968 0 0 Z " fill="#2D2D2D" transform="translate(175,277)"/>
<path d="M0 0 C0.66 1.32 1.32 2.64 2 4 C0.734375 6.76171875 0.734375 6.76171875 -1.25 9.6875 C-1.89453125 10.66074219 -2.5390625 11.63398438 -3.203125 12.63671875 C-5 15 -5 15 -7 16 C-7 15.34 -7 14.68 -7 14 C-7.66 13.67 -8.32 13.34 -9 13 C-6.03 8.71 -3.06 4.42 0 0 Z " fill="#323232" transform="translate(201,240)"/>
<path d="M0 0 C0.66 0.99 1.32 1.98 2 3 C0.84858407 6.87294449 -1.16262776 10.40877243 -3 14 C-3.33 14 -3.66 14 -4 14 C-4.99 10.04 -5.98 6.08 -7 2 C-4.525 2.495 -4.525 2.495 -2 3 C-1.34 2.01 -0.68 1.02 0 0 Z " fill="#252525" transform="translate(253,137)"/>
<path d="M0 0 C0 0.33 0 0.66 0 1 C-0.92232422 1.05607422 -0.92232422 1.05607422 -1.86328125 1.11328125 C-3.07564453 1.21189453 -3.07564453 1.21189453 -4.3125 1.3125 C-5.11300781 1.37050781 -5.91351563 1.42851562 -6.73828125 1.48828125 C-9.39066259 2.08838825 -10.36503879 2.85708967 -12 5 C-12 5.66 -12 6.32 -12 7 C-11.01 7.33 -10.02 7.66 -9 8 C-10.98 8.33 -12.96 8.66 -15 9 C-17 6 -17 6 -17 3 C-11.17521449 -0.03901852 -6.51791392 -0.3540919 0 0 Z " fill="#B0AFAF" transform="translate(205,342)"/>
<path d="M0 0 C0 2.31 0 4.62 0 7 C-1.45463481 7.38909985 -2.91391207 7.76088029 -4.375 8.125 C-5.18710937 8.33382813 -5.99921875 8.54265625 -6.8359375 8.7578125 C-7.55007813 8.83773438 -8.26421875 8.91765625 -9 9 C-9.66 8.34 -10.32 7.68 -11 7 C-9.68 5.68 -8.36 4.36 -7 3 C-5.02 3.99 -3.04 4.98 -1 6 C-1 4.35 -1 2.7 -1 1 C-3.64 1.33 -6.28 1.66 -9 2 C-5.5647952 -0.29013653 -4.014669 -0.17842973 0 0 Z " fill="#AEADAD" transform="translate(354,342)"/>
<path d="M0 0 C2.475 0.99 2.475 0.99 5 2 C5 1.34 5 0.68 5 0 C6.32 0 7.64 0 9 0 C8 3 8 3 5.78515625 4.38671875 C4.43744141 5.03060547 4.43744141 5.03060547 3.0625 5.6875 C2.16660156 6.12449219 1.27070313 6.56148438 0.34765625 7.01171875 C-2 8 -2 8 -4 8 C-4 6 -4 6 -2 4 C-1.30251417 2.68252676 -0.63040043 1.35085807 0 0 Z " fill="#242424" transform="translate(333,433)"/>
<path d="M0 0 C2.14377405 4.14462984 3.13428323 7.20480741 2.87890625 11.88671875 C2.83056641 12.82451172 2.78222656 13.76230469 2.73242188 14.72851562 C2.67634766 15.70498047 2.62027344 16.68144531 2.5625 17.6875 C2.51029297 18.67556641 2.45808594 19.66363281 2.40429688 20.68164062 C2.27464694 23.12141676 2.13968258 25.56078105 2 28 C1.67 28 1.34 28 1 28 C1 21.4 1 14.8 1 8 C-1.475 9.485 -1.475 9.485 -4 11 C-3.71125 10.484375 -3.4225 9.96875 -3.125 9.4375 C-1.71219973 6.37643275 -0.8751483 3.25055082 0 0 Z " fill="#3F3F3F" transform="translate(292,125)"/>
<path d="M0 0 C-0.33 0.99 -0.66 1.98 -1 3 C-1.66 3 -2.32 3 -3 3 C-3 3.66 -3 4.32 -3 5 C-0.69 4.34 1.62 3.68 4 3 C4.66 3.66 5.32 4.32 6 5 C-0.22535211 8.05164319 -0.22535211 8.05164319 -3.8125 7.8125 C-6 7 -6 7 -8 5 C-2.25 0 -2.25 0 0 0 Z " fill="#C2C2C2" transform="translate(266,345)"/>
<path d="M0 0 C2.31 0.66 4.62 1.32 7 2 C6.67 1.34 6.34 0.68 6 0 C7.32 0.33 8.64 0.66 10 1 C9.67 2.65 9.34 4.3 9 6 C6 7 6 7 4.17578125 6.22265625 C2.45052083 5.1484375 0.72526042 4.07421875 -1 3 C-0.67 2.01 -0.34 1.02 0 0 Z " fill="#F2F2F2" transform="translate(350,51)"/>
<path d="M0 0 C0.66 0.66 1.32 1.32 2 2 C1.01 2.66 0.02 3.32 -1 4 C-1 4.99 -1 5.98 -1 7 C-1.66 7.66 -2.32 8.32 -3 9 C-5 7 -5 7 -6 5 C-8.35599235 4.53248212 -8.35599235 4.53248212 -11.0625 4.375 C-11.98160156 4.30023438 -12.90070313 4.22546875 -13.84765625 4.1484375 C-14.55792969 4.09945313 -15.26820313 4.05046875 -16 4 C-16 3.67 -16 3.34 -16 3 C-15.18015625 2.95101563 -14.3603125 2.90203125 -13.515625 2.8515625 C-12.43796875 2.77679688 -11.3603125 2.70203125 -10.25 2.625 C-9.18265625 2.55539062 -8.1153125 2.48578125 -7.015625 2.4140625 C-4.19793568 2.0271777 -2.4169634 1.44313834 0 0 Z " fill="#B1AFB0" transform="translate(174,357)"/>
<path d="M0 0 C0.66 0 1.32 0 2 0 C0.6302836 3.99500618 -1.25722422 6.80009492 -4 10 C-4.66 9.67 -5.32 9.34 -6 9 C-6.33 9.99 -6.66 10.98 -7 12 C-7.66 11.67 -8.32 11.34 -9 11 C-7.5489926 9.16086305 -6.08898341 7.3288247 -4.625 5.5 C-3.81289062 4.4790625 -3.00078125 3.458125 -2.1640625 2.40625 C-1.44992188 1.6121875 -0.73578125 0.818125 0 0 Z " fill="#2C2C2C" transform="translate(221,214)"/>
<path d="M0 0 C0.66 0.99 1.32 1.98 2 3 C1.125 5.6875 1.125 5.6875 0 8 C-2.64 8 -5.28 8 -8 8 C-5.33333333 5.33333333 -2.66666667 2.66666667 0 0 Z " fill="#EAEAEA" transform="translate(381,407)"/>
<path d="M0 0 C2.66735273 2.48952921 4.55746343 4.63408134 6 8 C5.01 8.99 4.02 9.98 3 11 C2.67 10.34 2.34 9.68 2 9 C1.01 9.33 0.02 9.66 -1 10 C-1.66 9.01 -2.32 8.02 -3 7 C-1.35 6.67 0.3 6.34 2 6 C1.34 4.02 0.68 2.04 0 0 Z " fill="#BDBDBD" transform="translate(140,345)"/>
<path d="M0 0 C0.66 0 1.32 0 2 0 C2.33 0.99 2.66 1.98 3 3 C-0.57684957 5.20923062 -4.15494147 7.2910851 -8 9 C-8.66 8.67 -9.32 8.34 -10 8 C-9.36191406 7.50628906 -8.72382813 7.01257813 -8.06640625 6.50390625 C-7.24011719 5.86324219 -6.41382813 5.22257813 -5.5625 4.5625 C-4.73878906 3.92441406 -3.91507812 3.28632813 -3.06640625 2.62890625 C-1.12498733 1.16417803 -1.12498733 1.16417803 0 0 Z " fill="#353535" transform="translate(271,183)"/>
<path d="M0 0 C0.99 1.98 1.98 3.96 3 6 C0.525 7.485 0.525 7.485 -2 9 C-2 7.68 -2 6.36 -2 5 C-3.05270463 3.84188612 -3.05270463 3.84188612 -5 3 C-2.25 0 -2.25 0 0 0 Z " fill="#C1C1C1" transform="translate(188,346)"/>
<path d="M0 0 C0.66 0.33 1.32 0.66 2 1 C1.01 2.485 1.01 2.485 0 4 C-0.66 4 -1.32 4 -2 4 C-2.4021875 5.2065625 -2.4021875 5.2065625 -2.8125 6.4375 C-3.204375 7.283125 -3.59625 8.12875 -4 9 C-4.99 9.33 -5.98 9.66 -7 10 C-7.66 10.66 -8.32 11.32 -9 12 C-9 9 -9 9 -7.03125 6.73828125 C-5.77828125 5.53751953 -5.77828125 5.53751953 -4.5 4.3125 C-3.6646875 3.50425781 -2.829375 2.69601562 -1.96875 1.86328125 C-1.3190625 1.24839844 -0.669375 0.63351562 0 0 Z " fill="#E6E6E6" transform="translate(399,390)"/>
<path d="M0 0 C0.66 1.32 1.32 2.64 2 4 C1.34 4 0.68 4 0 4 C0 4.66 0 5.32 0 6 C-2.875 6.625 -2.875 6.625 -6 7 C-6.66 6.34 -7.32 5.68 -8 5 C-6.20963542 3.99088542 -4.41927083 2.98177083 -2.62890625 1.97265625 C-1.02121854 1.1027487 -1.02121854 1.1027487 0 0 Z " fill="#292728" transform="translate(333,360)"/>
<path d="M0 0 C5.28 0.33 10.56 0.66 16 1 C16 1.33 16 1.66 16 2 C13.36 2 10.72 2 8 2 C8 2.99 8 3.98 8 5 C4.35446828 3.7191375 2.83328987 2.83328987 0 0 Z " fill="#333333" transform="translate(205,283)"/>
<path d="M0 0 C1.32 0 2.64 0 4 0 C2.6062718 4.43458973 0.39417765 6.87378374 -3 10 C-2.01 6.7 -1.02 3.4 0 0 Z " fill="#222222" transform="translate(177,274)"/>
<path d="M0 0 C0.33 0 0.66 0 1 0 C1.25 2.29296875 1.25 2.29296875 1 5 C-0.75 6.80078125 -0.75 6.80078125 -3 8.3125 C-3.7425 8.82425781 -4.485 9.33601563 -5.25 9.86328125 C-5.8275 10.23839844 -6.405 10.61351562 -7 11 C-5.5129879 6.40378078 -3.20187872 3.53027653 0 0 Z " fill="#272727" transform="translate(245,264)"/>
<path d="M0 0 C0.66 0 1.32 0 2 0 C2.33 1.98 2.66 3.96 3 6 C1.02 6.66 -0.96 7.32 -3 8 C-3 4.40142046 -2.04169485 2.90548882 0 0 Z " fill="#CFCECF" transform="translate(175,357)"/>
<path d="M0 0 C0.33 0.99 0.66 1.98 1 3 C-0.32 3.99 -1.64 4.98 -3 6 C-4.32 5.34 -5.64 4.68 -7 4 C-3.17391304 0 -3.17391304 0 0 0 Z " fill="#F0F0F0" transform="translate(127,49)"/>
<path d="M0 0 C2.475 0.99 2.475 0.99 5 2 C5.33 1.34 5.66 0.68 6 0 C6 3 6 3 4.625 4.6875 C3 6 3 6 1 6 C-0.0625 4.125 -0.0625 4.125 -1 2 C-0.67 1.34 -0.34 0.68 0 0 Z " fill="#CFCFCF" transform="translate(258,351)"/>
<path d="M0 0 C0 1.65 0 3.3 0 5 C-0.94875 4.67 -1.8975 4.34 -2.875 4 C-5.77062452 2.89840809 -5.77062452 2.89840809 -8 3 C-8 2.34 -8 1.68 -8 1 C-5.10765685 0.17361624 -3.11257569 0 0 0 Z " fill="#CFCECE" transform="translate(353,343)"/>
<path d="M0 0 C2.97 0.495 2.97 0.495 6 1 C6 2.65 6 4.3 6 6 C5.01 6.33 4.02 6.66 3 7 C0 2.25 0 2.25 0 0 Z " fill="#F0F0F0" transform="translate(417,114)"/>
<path d="M0 0 C1.98 0 3.96 0 6 0 C4.68 1.32 3.36 2.64 2 4 C2.66 4.33 3.32 4.66 4 5 C3.34 5.66 2.68 6.32 2 7 C1.01 6.67 0.02 6.34 -1 6 C-0.67 4.02 -0.34 2.04 0 0 Z " fill="#CECCCD" transform="translate(330,355)"/>
<path d="M0 0 C1.65 0 3.3 0 5 0 C4.67 0.66 4.34 1.32 4 2 C4.66 2.66 5.32 3.32 6 4 C5.01 4.99 4.02 5.98 3 7 C1.68 6.34 0.36 5.68 -1 5 C-0.01 4.67 0.98 4.34 2 4 C1.34 2.68 0.68 1.36 0 0 Z " fill="#C3C1C2" transform="translate(147,357)"/>
<path d="M0 0 C3.16115776 1.36983503 3.9927092 1.9890638 6 5 C3.36 5.33 0.72 5.66 -2 6 C-2 5.01 -2 4.02 -2 3 C-1.34 3 -0.68 3 0 3 C0 2.01 0 1.02 0 0 Z " fill="#CCCCCC" transform="translate(299,354)"/>
<path d="M0 0 C0.66 0.33 1.32 0.66 2 1 C0.94124926 4.40312738 -0.00902154 7.01353231 -2 10 C-3.32 9.67 -4.64 9.34 -6 9 C-5.566875 8.62875 -5.13375 8.2575 -4.6875 7.875 C-2.53847015 5.48718905 -1.35242016 2.8980432 0 0 Z " fill="#3A3A3A" transform="translate(158,323)"/>
<path d="M0 0 C0.33 0.66 0.66 1.32 1 2 C-1.48387097 8.74193548 -1.48387097 8.74193548 -4 10 C-4.66 9.34 -5.32 8.68 -6 8 C-4.02 5.36 -2.04 2.72 0 0 Z " fill="#363636" transform="translate(227,205)"/>
<path d="M0 0 C2.31 1.98 4.62 3.96 7 6 C6.01 7.485 6.01 7.485 5 9 C2.5 6.75 2.5 6.75 0 4 C0 2.68 0 1.36 0 0 Z " fill="#E9E9E9" transform="translate(81,396)"/>
<path d="M0 0 C0.99 0.33 1.98 0.66 3 1 C1.35 2.65 -0.3 4.3 -2 6 C-2.66 5.34 -3.32 4.68 -4 4 C-2.68 2.68 -1.36 1.36 0 0 Z M-4 6 C-3.34 6 -2.68 6 -2 6 C-2 6.66 -2 7.32 -2 8 C-2.66 8 -3.32 8 -4 8 C-4 7.34 -4 6.68 -4 6 Z " fill="#232323" transform="translate(260,357)"/>
<path d="M0 0 C0.33 0.66 0.66 1.32 1 2 C1.66 2.33 2.32 2.66 3 3 C1.68 2.67 0.36 2.34 -1 2 C-0.67 1.34 -0.34 0.68 0 0 Z M-2 3 C-0.29159719 4.63412443 0.93453047 5.86906094 2 8 C1.01 8.33 0.02 8.66 -1 9 C-3.1875 7.5625 -3.1875 7.5625 -5 6 C-4.01 5.01 -3.02 4.02 -2 3 Z " fill="#C9C9C9" transform="translate(137,342)"/>
<path d="M0 0 C2.125 0.375 2.125 0.375 4 1 C3.1875 2.9375 3.1875 2.9375 2 5 C1.01 5.33 0.02 5.66 -1 6 C-1.625 4.125 -1.625 4.125 -2 2 C-1.34 1.34 -0.68 0.68 0 0 Z " fill="#1C1C1C" transform="translate(275,180)"/>
<path d="M0 0 C0.99 0.33 1.98 0.66 3 1 C2.67 1.99 2.34 2.98 2 4 C-1 5 -1 5 -4.1875 3.5625 C-5.115625 3.046875 -6.04375 2.53125 -7 2 C-7 1.67 -7 1.34 -7 1 C-4.69 1 -2.38 1 0 1 C0 0.67 0 0.34 0 0 Z " fill="#ECECEC" transform="translate(340,43)"/>
<path d="M0 0 C0.66 0.33 1.32 0.66 2 1 C1.01 2.1446875 1.01 2.1446875 0 3.3125 C-2.29850538 5.84277939 -2.29850538 5.84277939 -2 9 C-4 8 -4 8 -6 5 C-4.02 3.35 -2.04 1.7 0 0 Z " fill="#2C2C2C" transform="translate(192,350)"/>
<path d="M0 0 C2.475 0.99 2.475 0.99 5 2 C3.35 3.65 1.7 5.3 0 7 C-0.66 5.68 -1.32 4.36 -2 3 C-1.34 2.01 -0.68 1.02 0 0 Z " fill="#262425" transform="translate(249,352)"/>
<path d="M0 0 C-0.33 1.32 -0.66 2.64 -1 4 C-3.9375 3.625 -3.9375 3.625 -7 3 C-7.33 2.34 -7.66 1.68 -8 1 C-3.375 -1.125 -3.375 -1.125 0 0 Z " fill="#D1D0D1" transform="translate(230,359)"/>
<path d="M0 0 C0.33 0.99 0.66 1.98 1 3 C0.34 3 -0.32 3 -1 3 C-1 3.66 -1 4.32 -1 5 C-3.97 4.505 -3.97 4.505 -7 4 C-3.17391304 0 -3.17391304 0 0 0 Z " fill="#BCBABB" transform="translate(345,344)"/>
<path d="M0 0 C1.60031344 3.20062687 0.03173691 5.72271806 -1 9 C-2.32 9 -3.64 9 -5 9 C-3.7508258 5.54074837 -2.32472205 2.85306797 0 0 Z " fill="#3C3C3C" transform="translate(175,277)"/>
<path d="M0 0 C1.65 1.65 3.3 3.3 5 5 C2.125 5.125 2.125 5.125 -1 5 C-1.66 4.34 -2.32 3.68 -3 3 C-2.34 3 -1.68 3 -1 3 C-0.67 2.01 -0.34 1.02 0 0 Z " fill="#383838" transform="translate(156,262)"/>
<path d="M0 0 C1.1446875 0.3403125 1.1446875 0.3403125 2.3125 0.6875 C1.3225 1.1825 1.3225 1.1825 0.3125 1.6875 C-0.0175 2.6775 -0.3475 3.6675 -0.6875 4.6875 C-2.3375 4.6875 -3.9875 4.6875 -5.6875 4.6875 C-5.6875 2.6875 -5.6875 2.6875 -4.5 1 C-2.6875 -0.3125 -2.6875 -0.3125 0 0 Z " fill="#CFCFCF" transform="translate(268.6875,345.3125)"/>
<path d="M0 0 C0.33 0.66 0.66 1.32 1 2 C-0.25 4.5625 -0.25 4.5625 -2 7 C-2.99 7.33 -3.98 7.66 -5 8 C-3.8141763 4.62496331 -2.72426311 2.35277269 0 0 Z " fill="#282828" transform="translate(170,305)"/>
<path d="M0 0 C0.33 0.99 0.66 1.98 1 3 C-0.32 4.32 -1.64 5.64 -3 7 C-3 6.34 -3 5.68 -3 5 C-3.66 4.67 -4.32 4.34 -5 4 C-3 1 -3 1 0 0 Z " fill="#2C2C2C" transform="translate(197,249)"/>
<path d="M0 0 C0 0.66 0 1.32 0 2 C0.66 2.33 1.32 2.66 2 3 C-1 5 -1 5 -4 5 C-4 3.68 -4 2.36 -4 1 C-2 0 -2 0 0 0 Z " fill="#242424" transform="translate(336,345)"/>
<path d="M0 0 C0.66 0 1.32 0 2 0 C2 1.65 2 3.3 2 5 C1.34 5 0.68 5 0 5 C-1.37310707 6.29233607 -2.71034824 7.62437146 -4 9 C-2.80100302 5.9168649 -1.52299523 2.93720508 0 0 Z " fill="#C3C3C3" transform="translate(170,214)"/>
<path d="M0 0 C0.66 0 1.32 0 2 0 C2.33 1.32 2.66 2.64 3 4 C2.01 4.33 1.02 4.66 0 5 C-0.33 5.66 -0.66 6.32 -1 7 C-1.66 7 -2.32 7 -3 7 C-1.125 1.125 -1.125 1.125 0 0 Z " fill="#272727" transform="translate(48,131)"/>
<path d="M0 0 C1.9375 0.8125 1.9375 0.8125 4 2 C4.33 2.99 4.66 3.98 5 5 C1.25 6.125 1.25 6.125 -1 5 C-0.67 3.35 -0.34 1.7 0 0 Z " fill="#F1F1F1" transform="translate(153,33)"/>
<path d="M0 0 C0.66 0.33 1.32 0.66 2 1 C0.515 3.475 0.515 3.475 -1 6 C-2.65 5.67 -4.3 5.34 -6 5 C-5.195625 4.360625 -4.39125 3.72125 -3.5625 3.0625 C-1.7249496 1.59396498 -1.7249496 1.59396498 0 0 Z " fill="#DDDDDD" transform="translate(360,423)"/>
<path d="M0 0 C1.4606285 2.64738916 2 3.89448334 2 7 C-0.475 6.01 -0.475 6.01 -3 5 C-2.01 3.35 -1.02 1.7 0 0 Z M2 3 C4 4 4 4 4 4 Z " fill="#EAEAEA" transform="translate(404,384)"/>
<path d="M0 0 C0.66 0.33 1.32 0.66 2 1 C1.34 2.32 0.68 3.64 0 5 C-1.65 5 -3.3 5 -5 5 C-3.35 3.35 -1.7 1.7 0 0 Z " fill="#232323" transform="translate(183,345)"/>
<path d="M0 0 C-1.47692308 4.67692308 -1.47692308 4.67692308 -4.125 6.3125 C-5.053125 6.6528125 -5.053125 6.6528125 -6 7 C-5.37162381 3.35541809 -4.14650034 0 0 0 Z " fill="#1F1F1F" transform="translate(217,223)"/>
<path d="M0 0 C0.33 0.99 0.66 1.98 1 3 C0.0409375 3.433125 0.0409375 3.433125 -0.9375 3.875 C-3.15206079 4.82823451 -3.15206079 4.82823451 -4 7 C-4 5.68 -4 4.36 -4 3 C-2 1.25 -2 1.25 0 0 Z " fill="#262626" transform="translate(106,66)"/>
<path d="M0 0 C2.62187494 1.04874998 3.79371361 1.64931313 5.25 4.125 C5.4975 4.74375 5.745 5.3625 6 6 C1.25 4.125 1.25 4.125 -1 3 C-0.67 2.01 -0.34 1.02 0 0 Z " fill="#E4E4E4" transform="translate(350,51)"/>
<path d="M0 0 C3.35595828 0.59927826 5.37801226 1.84622436 8 4 C6.02 4 4.04 4 2 4 C2 3.34 2 2.68 2 2 C1.34 2 0.68 2 0 2 C0 1.34 0 0.68 0 0 Z " fill="#E8E8E8" transform="translate(113,424)"/>
<path d="M0 0 C0.99 0.33 1.98 0.66 3 1 C2.75 2.875 2.75 2.875 2 5 C-0.0625 6.25 -0.0625 6.25 -2 7 C-1.125 2.25 -1.125 2.25 0 0 Z " fill="#CFCFCF" transform="translate(182,350)"/>
<path d="M0 0 C0.66 1.32 1.32 2.64 2 4 C-0.64 4.33 -3.28 4.66 -6 5 C-5.195625 4.360625 -4.39125 3.72125 -3.5625 3.0625 C-1.7249496 1.59396498 -1.7249496 1.59396498 0 0 Z " fill="#3B3B3B" transform="translate(218,290)"/>
<path d="M0 0 C1.98 1.65 3.96 3.3 6 5 C5.34 5.66 4.68 6.32 4 7 C2 5.1875 2 5.1875 0 3 C0 2.01 0 1.02 0 0 Z " fill="#262626" transform="translate(393,88)"/>
<path d="M0 0 C0.66 0.33 1.32 0.66 2 1 C0.63016497 4.16115776 0.0109362 4.9927092 -3 7 C-2.25 2.25 -2.25 2.25 0 0 Z " fill="#E1E1E1" transform="translate(101,66)"/>
</svg>
